<?xml version="1.0" encoding="utf-8" ?>
<svg baseProfile="full" height="57.5mm" version="1.1" viewBox="0,0,306.20000000000005,57.5" width="306.20000000000005mm" xmlns="http://www.w3.org/2000/svg" xmlns:ev="http://www.w3.org/2001/xml-events" xmlns:xlink="http://www.w3.org/1999/xlink"><defs /><rect fill="#FFFFFF" height="57.5" width="306.20000000000005" x="0" y="0" /><text fill="#000000" style="font-size:6px; font-family:Arial; font-weight:bold;" x="10" y="10" /><text fill="#000000" style="font-size:3px; font-family:Arial;" x="10" y="14.4">2024: 191 hours</text><text fill="#000000" style="font-size:2.5px; font-family:Arial" x="10" y="18.3">Jan</text><rect fill="#EBEDF0" height="4" rx="1" ry="1" width="4" x="10" y="19.7"><title>2024-01-01</title></rect><rect fill="#549F57" height="4" rx="1" ry="1" width="4" x="10" y="25.1"><title>2024-01-02 75.47 mins</title></rect><rect fill="#66be6b" height="4" rx="1" ry="1" width="4" x="10" y="30.5"><title>2024-01-03 32.25 mins</title></rect><rect fill="#EBEDF0" height="4" rx="1" ry="1" width="4" x="10" y="35.9"><title>2024-01-04</title></rect><rect fill="#abe7ad" height="4" rx="1" ry="1" width="4" x="10" y="41.300000000000004"><title>2024-01-05 1.42 mins</title></rect><rect fill="#EBEDF0" height="4" rx="1" ry="1" width="4" x="10" y="46.699999999999996"><title>2024-01-06</title></rect><rect fill="#a7e5a9" height="4" rx="1" ry="1" width="4" x="10" y="52.1"><title>2024-01-07 11.78 mins</title></rect><rect fill="#549F57" height="4" rx="1" ry="1" width="4" x="15.4" y="19.7"><title>2024-01-08 106.75 mins</title></rect><rect fill="#549F57" height="4" rx="1" ry="1" width="4" x="15.4" y="25.1"><title>2024-01-09 126.6 mins</title></rect><rect fill="#abe6ad" height="4" rx="1" ry="1" width="4" x="15.4" y="30.5"><title>2024-01-10 2.87 mins</title></rect><rect fill="#ace7ae" height="4" rx="1" ry="1" width="4" x="15.4" y="35.9"><title>2024-01-11 0.37 mins</title></rect><rect fill="#EBEDF0" height="4" rx="1" ry="1" width="4" x="15.4" y="41.300000000000004"><title>2024-01-12</title></rect><rect fill="#EBEDF0" height="4" rx="1" ry="1" width="4" x="15.4" y="46.699999999999996"><title>2024-01-13</title></rect><rect fill="#EBEDF0" height="4" rx="1" ry="1" width="4" x="15.4" y="52.1"><title>2024-01-14</title></rect><rect fill="#ace7ae" height="4" rx="1" ry="1" width="4" x="20.8" y="19.7"><title>2024-01-15 0.17 mins</title></rect><rect fill="#549F57" height="4" rx="1" ry="1" width="4" x="20.8" y="25.1"><title>2024-01-16 82.98 mins</title></rect><rect fill="#63bb68" height="4" rx="1" ry="1" width="4" x="20.8" y="30.5"><title>2024-01-17 60.07 mins</title></rect><rect fill="#aae6ac" height="4" rx="1" ry="1" width="4" x="20.8" y="35.9"><title>2024-01-18 4.77 mins</title></rect><rect fill="#64bc69" height="4" rx="1" ry="1" width="4" x="20.8" y="41.300000000000004"><title>2024-01-19 49.18 mins</title></rect><rect fill="#EBEDF0" height="4" rx="1" ry="1" width="4" x="20.8" y="46.699999999999996"><title>2024-01-20</title></rect><rect fill="#a5e4a7" height="4" rx="1" ry="1" width="4" x="20.8" y="52.1"><title>2024-01-21 17.07 mins</title></rect><rect fill="#EBEDF0" height="4" rx="1" ry="1" width="4" x="26.200000000000003" y="19.7"><title>2024-01-22</title></rect><rect fill="#EBEDF0" height="4" rx="1" ry="1" width="4" x="26.200000000000003" y="25.1"><title>2024-01-23</title></rect><rect fill="#EBEDF0" height="4" rx="1" ry="1" width="4" x="26.200000000000003" y="30.5"><title>2024-01-24</title></rect><rect fill="#EBEDF0" height="4" rx="1" ry="1" width="4" x="26.200000000000003" y="35.9"><title>2024-01-25</title></rect><rect fill="#EBEDF0" height="4" rx="1" ry="1" width="4" x="26.200000000000003" y="41.300000000000004"><title>2024-01-26</title></rect><rect fill="#EBEDF0" height="4" rx="1" ry="1" width="4" x="26.200000000000003" y="46.699999999999996"><title>2024-01-27</title></rect><rect fill="#EBEDF0" height="4" rx="1" ry="1" width="4" x="26.200000000000003" y="52.1"><title>2024-01-28</title></rect><rect fill="#EBEDF0" height="4" rx="1" ry="1" width="4" x="31.6" y="19.7"><title>2024-01-29</title></rect><rect fill="#EBEDF0" height="4" rx="1" ry="1" width="4" x="31.6" y="25.1"><title>2024-01-30</title></rect><rect fill="#EBEDF0" height="4" rx="1" ry="1" width="4" x="31.6" y="30.5"><title>2024-01-31</title></rect><rect fill="#EBEDF0" height="4" rx="1" ry="1" width="4" x="31.6" y="35.9"><title>2024-02-01</title></rect><rect fill="#EBEDF0" height="4" rx="1" ry="1" width="4" x="31.6" y="41.300000000000004"><title>2024-02-02</title></rect><rect fill="#EBEDF0" height="4" rx="1" ry="1" width="4" x="31.6" y="46.699999999999996"><title>2024-02-03</title></rect><rect fill="#EBEDF0" height="4" rx="1" ry="1" width="4" x="31.6" y="52.1"><title>2024-02-04</title></rect><text fill="#000000" style="font-size:2.5px; font-family:Arial" x="37.0" y="18.3">Feb</text><rect fill="#EBEDF0" height="4" rx="1" ry="1" width="4" x="37.0" y="19.7"><title>2024-02-05</title></rect><rect fill="#EBEDF0" height="4" rx="1" ry="1" width="4" x="37.0" y="25.1"><title>2024-02-06</title></rect><rect fill="#EBEDF0" height="4" rx="1" ry="1" width="4" x="37.0" y="30.5"><title>2024-02-07</title></rect><rect fill="#EBEDF0" height="4" rx="1" ry="1" width="4" x="37.0" y="35.9"><title>2024-02-08</title></rect><rect fill="#EBEDF0" height="4" rx="1" ry="1" width="4" x="37.0" y="41.300000000000004"><title>2024-02-09</title></rect><rect fill="#EBEDF0" height="4" rx="1" ry="1" width="4" x="37.0" y="46.699999999999996"><title>2024-02-10</title></rect><rect fill="#EBEDF0" height="4" rx="1" ry="1" width="4" x="37.0" y="52.1"><title>2024-02-11</title></rect><rect fill="#EBEDF0" height="4" rx="1" ry="1" width="4" x="42.4" y="19.7"><title>2024-02-12</title></rect><rect fill="#EBEDF0" height="4" rx="1" ry="1" width="4" x="42.4" y="25.1"><title>2024-02-13</title></rect><rect fill="#EBEDF0" height="4" rx="1" ry="1" width="4" x="42.4" y="30.5"><title>2024-02-14</title></rect><rect fill="#EBEDF0" height="4" rx="1" ry="1" width="4" x="42.4" y="35.9"><title>2024-02-15</title></rect><rect fill="#EBEDF0" height="4" rx="1" ry="1" width="4" x="42.4" y="41.300000000000004"><title>2024-02-16</title></rect><rect fill="#EBEDF0" height="4" rx="1" ry="1" width="4" x="42.4" y="46.699999999999996"><title>2024-02-17</title></rect><rect fill="#EBEDF0" height="4" rx="1" ry="1" width="4" x="42.4" y="52.1"><title>2024-02-18</title></rect><rect fill="#a5e4a7" height="4" rx="1" ry="1" width="4" x="47.8" y="19.7"><title>2024-02-19 18.5 mins</title></rect><rect fill="#EBEDF0" height="4" rx="1" ry="1" width="4" x="47.8" y="25.1"><title>2024-02-20</title></rect><rect fill="#EBEDF0" height="4" rx="1" ry="1" width="4" x="47.8" y="30.5"><title>2024-02-21</title></rect><rect fill="#EBEDF0" height="4" rx="1" ry="1" width="4" x="47.8" y="35.9"><title>2024-02-22</title></rect><rect fill="#EBEDF0" height="4" rx="1" ry="1" width="4" x="47.8" y="41.300000000000004"><title>2024-02-23</title></rect><rect fill="#a8e5aa" height="4" rx="1" ry="1" width="4" x="47.8" y="46.699999999999996"><title>2024-02-24 10.5 mins</title></rect><rect fill="#a9e6ab" height="4" rx="1" ry="1" width="4" x="47.8" y="52.1"><title>2024-02-25 7.92 mins</title></rect><rect fill="#549F57" height="4" rx="1" ry="1" width="4" x="53.199999999999996" y="19.7"><title>2024-02-26 87.85 mins</title></rect><rect fill="#66bd6a" height="4" rx="1" ry="1" width="4" x="53.199999999999996" y="25.1"><title>2024-02-27 35.37 mins</title></rect><rect fill="#a8e5aa" height="4" rx="1" ry="1" width="4" x="53.199999999999996" y="30.5"><title>2024-02-28 9.5 mins</title></rect><rect fill="#549F57" height="4" rx="1" ry="1" width="4" x="53.199999999999996" y="35.9"><title>2024-02-29 89.77 mins</title></rect><rect fill="#ace7ae" height="4" rx="1" ry="1" width="4" x="53.199999999999996" y="41.300000000000004"><title>2024-03-01 0.22 mins</title></rect><rect fill="#EBEDF0" height="4" rx="1" ry="1" width="4" x="53.199999999999996" y="46.699999999999996"><title>2024-03-02</title></rect><rect fill="#EBEDF0" height="4" rx="1" ry="1" width="4" x="53.199999999999996" y="52.1"><title>2024-03-03</title></rect><text fill="#000000" style="font-size:2.5px; font-family:Arial" x="58.599999999999994" y="18.3">Mar</text><rect fill="#a4e3a6" height="4" rx="1" ry="1" width="4" x="58.599999999999994" y="19.7"><title>2024-03-04 20.28 mins</title></rect><rect fill="#ace7ae" height="4" rx="1" ry="1" width="4" x="58.599999999999994" y="25.1"><title>2024-03-05 0.67 mins</title></rect><rect fill="#a8e5ab" height="4" rx="1" ry="1" width="4" x="58.599999999999994" y="30.5"><title>2024-03-06 8.87 mins</title></rect><rect fill="#65bc69" height="4" rx="1" ry="1" width="4" x="58.599999999999994" y="35.9"><title>2024-03-07 45.32 mins</title></rect><rect fill="#a8e5aa" height="4" rx="1" ry="1" width="4" x="58.599999999999994" y="41.300000000000004"><title>2024-03-08 10.58 mins</title></rect><rect fill="#EBEDF0" height="4" rx="1" ry="1" width="4" x="58.599999999999994" y="46.699999999999996"><title>2024-03-09</title></rect><rect fill="#abe7ad" height="4" rx="1" ry="1" width="4" x="58.599999999999994" y="52.1"><title>2024-03-10 1.73 mins</title></rect><rect fill="#a6e4a8" height="4" rx="1" ry="1" width="4" x="63.99999999999999" y="19.7"><title>2024-03-11 15.63 mins</title></rect><rect fill="#65bd6a" height="4" rx="1" ry="1" width="4" x="63.99999999999999" y="25.1"><title>2024-03-12 38.23 mins</title></rect><rect fill="#64bc69" height="4" rx="1" ry="1" width="4" x="63.99999999999999" y="30.5"><title>2024-03-13 47.77 mins</title></rect><rect fill="#a7e5a9" height="4" rx="1" ry="1" width="4" x="63.99999999999999" y="35.9"><title>2024-03-14 12.85 mins</title></rect><rect fill="#ace7ae" height="4" rx="1" ry="1" width="4" x="63.99999999999999" y="41.300000000000004"><title>2024-03-15 1.1 mins</title></rect><rect fill="#66be6b" height="4" rx="1" ry="1" width="4" x="63.99999999999999" y="46.699999999999996"><title>2024-03-16 32.18 mins</title></rect><rect fill="#EBEDF0" height="4" rx="1" ry="1" width="4" x="63.99999999999999" y="52.1"><title>2024-03-17</title></rect><rect fill="#62ba67" height="4" rx="1" ry="1" width="4" x="69.39999999999999" y="19.7"><title>2024-03-18 70.68 mins</title></rect><rect fill="#EBEDF0" height="4" rx="1" ry="1" width="4" x="69.39999999999999" y="25.1"><title>2024-03-19</title></rect><rect fill="#EBEDF0" height="4" rx="1" ry="1" width="4" x="69.39999999999999" y="30.5"><title>2024-03-20</title></rect><rect fill="#EBEDF0" height="4" rx="1" ry="1" width="4" x="69.39999999999999" y="35.9"><title>2024-03-21</title></rect><rect fill="#EBEDF0" height="4" rx="1" ry="1" width="4" x="69.39999999999999" y="41.300000000000004"><title>2024-03-22</title></rect><rect fill="#65bd6a" height="4" rx="1" ry="1" width="4" x="69.39999999999999" y="46.699999999999996"><title>2024-03-23 38.87 mins</title></rect><rect fill="#abe7ad" height="4" rx="1" ry="1" width="4" x="69.39999999999999" y="52.1"><title>2024-03-24 1.75 mins</title></rect><rect fill="#549F57" height="4" rx="1" ry="1" width="4" x="74.8" y="19.7"><title>2024-03-25 98.75 mins</title></rect><rect fill="#abe7ad" height="4" rx="1" ry="1" width="4" x="74.8" y="25.1"><title>2024-03-26 2.62 mins</title></rect><rect fill="#549F57" height="4" rx="1" ry="1" width="4" x="74.8" y="30.5"><title>2024-03-27 142.7 mins</title></rect><rect fill="#a4e3a6" height="4" rx="1" ry="1" width="4" x="74.8" y="35.9"><title>2024-03-28 19.75 mins</title></rect><rect fill="#EBEDF0" height="4" rx="1" ry="1" width="4" x="74.8" y="41.300000000000004"><title>2024-03-29</title></rect><rect fill="#EBEDF0" height="4" rx="1" ry="1" width="4" x="74.8" y="46.699999999999996"><title>2024-03-30</title></rect><rect fill="#EBEDF0" height="4" rx="1" ry="1" width="4" x="74.8" y="52.1"><title>2024-03-31</title></rect><text fill="#000000" style="font-size:2.5px; font-family:Arial" x="80.2" y="18.3">Apr</text><rect fill="#a9e6ab" height="4" rx="1" ry="1" width="4" x="80.2" y="19.7"><title>2024-04-01 6.48 mins</title></rect><rect fill="#EBEDF0" height="4" rx="1" ry="1" width="4" x="80.2" y="25.1"><title>2024-04-02</title></rect><rect fill="#abe7ad" height="4" rx="1" ry="1" width="4" x="80.2" y="30.5"><title>2024-04-03 1.57 mins</title></rect><rect fill="#EBEDF0" height="4" rx="1" ry="1" width="4" x="80.2" y="35.9"><title>2024-04-04</title></rect><rect fill="#EBEDF0" height="4" rx="1" ry="1" width="4" x="80.2" y="41.300000000000004"><title>2024-04-05</title></rect><rect fill="#EBEDF0" height="4" rx="1" ry="1" width="4" x="80.2" y="46.699999999999996"><title>2024-04-06</title></rect><rect fill="#EBEDF0" height="4" rx="1" ry="1" width="4" x="80.2" y="52.1"><title>2024-04-07</title></rect><rect fill="#EBEDF0" height="4" rx="1" ry="1" width="4" x="85.60000000000001" y="19.7"><title>2024-04-08</title></rect><rect fill="#EBEDF0" height="4" rx="1" ry="1" width="4" x="85.60000000000001" y="25.1"><title>2024-04-09</title></rect><rect fill="#64bc69" height="4" rx="1" ry="1" width="4" x="85.60000000000001" y="30.5"><title>2024-04-10 49.02 mins</title></rect><rect fill="#549F57" height="4" rx="1" ry="1" width="4" x="85.60000000000001" y="35.9"><title>2024-04-11 114.72 mins</title></rect><rect fill="#549F57" height="4" rx="1" ry="1" width="4" x="85.60000000000001" y="41.300000000000004"><title>2024-04-12 199.4 mins</title></rect><rect fill="#abe6ad" height="4" rx="1" ry="1" width="4" x="85.60000000000001" y="46.699999999999996"><title>2024-04-13 3.08 mins</title></rect><rect fill="#66be6b" height="4" rx="1" ry="1" width="4" x="85.60000000000001" y="52.1"><title>2024-04-14 29.72 mins</title></rect><rect fill="#EBEDF0" height="4" rx="1" ry="1" width="4" x="91.00000000000001" y="19.7"><title>2024-04-15</title></rect><rect fill="#aae6ac" height="4" rx="1" ry="1" width="4" x="91.00000000000001" y="25.1"><title>2024-04-16 4.42 mins</title></rect><rect fill="#65bd6a" height="4" rx="1" ry="1" width="4" x="91.00000000000001" y="30.5"><title>2024-04-17 40.18 mins</title></rect><rect fill="#549F57" height="4" rx="1" ry="1" width="4" x="91.00000000000001" y="35.9"><title>2024-04-18 90.42 mins</title></rect><rect fill="#549F57" height="4" rx="1" ry="1" width="4" x="91.00000000000001" y="41.300000000000004"><title>2024-04-19 83.37 mins</title></rect><rect fill="#a3e3a5" height="4" rx="1" ry="1" width="4" x="91.00000000000001" y="46.699999999999996"><title>2024-04-20 22.63 mins</title></rect><rect fill="#65bd6a" height="4" rx="1" ry="1" width="4" x="91.00000000000001" y="52.1"><title>2024-04-21 42.4 mins</title></rect><rect fill="#65bd6a" height="4" rx="1" ry="1" width="4" x="96.40000000000002" y="19.7"><title>2024-04-22 38.03 mins</title></rect><rect fill="#64bb68" height="4" rx="1" ry="1" width="4" x="96.40000000000002" y="25.1"><title>2024-04-23 55.92 mins</title></rect><rect fill="#a1e2a3" height="4" rx="1" ry="1" width="4" x="96.40000000000002" y="30.5"><title>2024-04-24 28.17 mins</title></rect><rect fill="#549F57" height="4" rx="1" ry="1" width="4" x="96.40000000000002" y="35.9"><title>2024-04-25 95.43 mins</title></rect><rect fill="#65bd6a" height="4" rx="1" ry="1" width="4" x="96.40000000000002" y="41.300000000000004"><title>2024-04-26 37.02 mins</title></rect><rect fill="#549F57" height="4" rx="1" ry="1" width="4" x="96.40000000000002" y="46.699999999999996"><title>2024-04-27 111.93 mins</title></rect><rect fill="#549F57" height="4" rx="1" ry="1" width="4" x="96.40000000000002" y="52.1"><title>2024-04-28 127.17 mins</title></rect><rect fill="#a8e5aa" height="4" rx="1" ry="1" width="4" x="101.80000000000003" y="19.7"><title>2024-04-29 10.25 mins</title></rect><rect fill="#62ba67" height="4" rx="1" ry="1" width="4" x="101.80000000000003" y="25.1"><title>2024-04-30 70.25 mins</title></rect><rect fill="#ace7ae" height="4" rx="1" ry="1" width="4" x="101.80000000000003" y="30.5"><title>2024-05-01 0.18 mins</title></rect><rect fill="#65bd6a" height="4" rx="1" ry="1" width="4" x="101.80000000000003" y="35.9"><title>2024-05-02 37.6 mins</title></rect><rect fill="#a6e4a8" height="4" rx="1" ry="1" width="4" x="101.80000000000003" y="41.300000000000004"><title>2024-05-03 15.72 mins</title></rect><rect fill="#abe7ad" height="4" rx="1" ry="1" width="4" x="101.80000000000003" y="46.699999999999996"><title>2024-05-04 2.05 mins</title></rect><rect fill="#65bd6a" height="4" rx="1" ry="1" width="4" x="101.80000000000003" y="52.1"><title>2024-05-05 40.97 mins</title></rect><text fill="#000000" style="font-size:2.5px; font-family:Arial" x="107.20000000000003" y="18.3">May</text><rect fill="#549F57" height="4" rx="1" ry="1" width="4" x="107.20000000000003" y="19.7"><title>2024-05-06 85.87 mins</title></rect><rect fill="#64bb68" height="4" rx="1" ry="1" width="4" x="107.20000000000003" y="25.1"><title>2024-05-07 55.65 mins</title></rect><rect fill="#aae6ac" height="4" rx="1" ry="1" width="4" x="107.20000000000003" y="30.5"><title>2024-05-08 4.12 mins</title></rect><rect fill="#549F57" height="4" rx="1" ry="1" width="4" x="107.20000000000003" y="35.9"><title>2024-05-09 78.07 mins</title></rect><rect fill="#EBEDF0" height="4" rx="1" ry="1" width="4" x="107.20000000000003" y="41.300000000000004"><title>2024-05-10</title></rect><rect fill="#549F57" height="4" rx="1" ry="1" width="4" x="107.20000000000003" y="46.699999999999996"><title>2024-05-11 78.33 mins</title></rect><rect fill="#abe7ad" height="4" rx="1" ry="1" width="4" x="107.20000000000003" y="52.1"><title>2024-05-12 1.67 mins</title></rect><rect fill="#549F57" height="4" rx="1" ry="1" width="4" x="112.60000000000004" y="19.7"><title>2024-05-13 75.58 mins</title></rect><rect fill="#549F57" height="4" rx="1" ry="1" width="4" x="112.60000000000004" y="25.1"><title>2024-05-14 79.67 mins</title></rect><rect fill="#66be6b" height="4" rx="1" ry="1" width="4" x="112.60000000000004" y="30.5"><title>2024-05-15 30.7 mins</title></rect><rect fill="#a6e4a8" height="4" rx="1" ry="1" width="4" x="112.60000000000004" y="35.9"><title>2024-05-16 15.23 mins</title></rect><rect fill="#EBEDF0" height="4" rx="1" ry="1" width="4" x="112.60000000000004" y="41.300000000000004"><title>2024-05-17</title></rect><rect fill="#63bb68" height="4" rx="1" ry="1" width="4" x="112.60000000000004" y="46.699999999999996"><title>2024-05-18 57.3 mins</title></rect><rect fill="#a7e5a9" height="4" rx="1" ry="1" width="4" x="112.60000000000004" y="52.1"><title>2024-05-19 12.2 mins</title></rect><rect fill="#EBEDF0" height="4" rx="1" ry="1" width="4" x="118.00000000000004" y="19.7"><title>2024-05-20</title></rect><rect fill="#a6e4a8" height="4" rx="1" ry="1" width="4" x="118.00000000000004" y="25.1"><title>2024-05-21 15.28 mins</title></rect><rect fill="#EBEDF0" height="4" rx="1" ry="1" width="4" x="118.00000000000004" y="30.5"><title>2024-05-22</title></rect><rect fill="#EBEDF0" height="4" rx="1" ry="1" width="4" x="118.00000000000004" y="35.9"><title>2024-05-23</title></rect><rect fill="#66be6b" height="4" rx="1" ry="1" width="4" x="118.00000000000004" y="41.300000000000004"><title>2024-05-24 30.37 mins</title></rect><rect fill="#EBEDF0" height="4" rx="1" ry="1" width="4" x="118.00000000000004" y="46.699999999999996"><title>2024-05-25</title></rect><rect fill="#549F57" height="4" rx="1" ry="1" width="4" x="118.00000000000004" y="52.1"><title>2024-05-26 74.57 mins</title></rect><rect fill="#549F57" height="4" rx="1" ry="1" width="4" x="123.40000000000005" y="19.7"><title>2024-05-27 121.92 mins</title></rect><rect fill="#a2e2a4" height="4" rx="1" ry="1" width="4" x="123.40000000000005" y="25.1"><title>2024-05-28 24.95 mins</title></rect><rect fill="#66be6b" height="4" rx="1" ry="1" width="4" x="123.40000000000005" y="30.5"><title>2024-05-29 30.62 mins</title></rect><rect fill="#65bd6a" height="4" rx="1" ry="1" width="4" x="123.40000000000005" y="35.9"><title>2024-05-30 39.85 mins</title></rect><rect fill="#549F57" height="4" rx="1" ry="1" width="4" x="123.40000000000005" y="41.300000000000004"><title>2024-05-31 84.48 mins</title></rect><rect fill="#66be6b" height="4" rx="1" ry="1" width="4" x="123.40000000000005" y="46.699999999999996"><title>2024-06-01 30.18 mins</title></rect><rect fill="#549F57" height="4" rx="1" ry="1" width="4" x="123.40000000000005" y="52.1"><title>2024-06-02 72.2 mins</title></rect><text fill="#000000" style="font-size:2.5px; font-family:Arial" x="128.80000000000004" y="18.3">Jun</text><rect fill="#62ba67" height="4" rx="1" ry="1" width="4" x="128.80000000000004" y="19.7"><title>2024-06-03 69.62 mins</title></rect><rect fill="#549F57" height="4" rx="1" ry="1" width="4" x="128.80000000000004" y="25.1"><title>2024-06-04 155.48 mins</title></rect><rect fill="#64bc69" height="4" rx="1" ry="1" width="4" x="128.80000000000004" y="30.5"><title>2024-06-05 53.57 mins</title></rect><rect fill="#66be6b" height="4" rx="1" ry="1" width="4" x="128.80000000000004" y="35.9"><title>2024-06-06 33.6 mins</title></rect><rect fill="#65bd6a" height="4" rx="1" ry="1" width="4" x="128.80000000000004" y="41.300000000000004"><title>2024-06-07 40.78 mins</title></rect><rect fill="#aae6ac" height="4" rx="1" ry="1" width="4" x="128.80000000000004" y="46.699999999999996"><title>2024-06-08 6.13 mins</title></rect><rect fill="#549F57" height="4" rx="1" ry="1" width="4" x="128.80000000000004" y="52.1"><title>2024-06-09 85.75 mins</title></rect><rect fill="#64bb68" height="4" rx="1" ry="1" width="4" x="134.20000000000005" y="19.7"><title>2024-06-10 56.45 mins</title></rect><rect fill="#549F57" height="4" rx="1" ry="1" width="4" x="134.20000000000005" y="25.1"><title>2024-06-11 82.57 mins</title></rect><rect fill="#a7e5a9" height="4" rx="1" ry="1" width="4" x="134.20000000000005" y="30.5"><title>2024-06-12 13.28 mins</title></rect><rect fill="#aae6ac" height="4" rx="1" ry="1" width="4" x="134.20000000000005" y="35.9"><title>2024-06-13 5.43 mins</title></rect><rect fill="#abe7ad" height="4" rx="1" ry="1" width="4" x="134.20000000000005" y="41.300000000000004"><title>2024-06-14 1.68 mins</title></rect><rect fill="#a2e2a4" height="4" rx="1" ry="1" width="4" x="134.20000000000005" y="46.699999999999996"><title>2024-06-15 26.67 mins</title></rect><rect fill="#ace7ae" height="4" rx="1" ry="1" width="4" x="134.20000000000005" y="52.1"><title>2024-06-16 0.22 mins</title></rect><rect fill="#a4e3a6" height="4" rx="1" ry="1" width="4" x="139.60000000000005" y="19.7"><title>2024-06-17 20.58 mins</title></rect><rect fill="#EBEDF0" height="4" rx="1" ry="1" width="4" x="139.60000000000005" y="25.1"><title>2024-06-18</title></rect><rect fill="#549F57" height="4" rx="1" ry="1" width="4" x="139.60000000000005" y="30.5"><title>2024-06-19 228.67 mins</title></rect><rect fill="#a2e2a4" height="4" rx="1" ry="1" width="4" x="139.60000000000005" y="35.9"><title>2024-06-20 25.0 mins</title></rect><rect fill="#EBEDF0" height="4" rx="1" ry="1" width="4" x="139.60000000000005" y="41.300000000000004"><title>2024-06-21</title></rect><rect fill="#549F57" height="4" rx="1" ry="1" width="4" x="139.60000000000005" y="46.699999999999996"><title>2024-06-22 278.7 mins</title></rect><rect fill="#64bc68" height="4" rx="1" ry="1" width="4" x="139.60000000000005" y="52.1"><title>2024-06-23 54.62 mins</title></rect><rect fill="#abe6ad" height="4" rx="1" ry="1" width="4" x="145.00000000000006" y="19.7"><title>2024-06-24 2.9 mins</title></rect><rect fill="#aae6ac" height="4" rx="1" ry="1" width="4" x="145.00000000000006" y="25.1"><title>2024-06-25 4.25 mins</title></rect><rect fill="#a4e3a6" height="4" rx="1" ry="1" width="4" x="145.00000000000006" y="30.5"><title>2024-06-26 19.72 mins</title></rect><rect fill="#64bc69" height="4" rx="1" ry="1" width="4" x="145.00000000000006" y="35.9"><title>2024-06-27 48.72 mins</title></rect><rect fill="#EBEDF0" height="4" rx="1" ry="1" width="4" x="145.00000000000006" y="41.300000000000004"><title>2024-06-28</title></rect><rect fill="#ace7ae" height="4" rx="1" ry="1" width="4" x="145.00000000000006" y="46.699999999999996"><title>2024-06-29 0.1 mins</title></rect><rect fill="#65bd6a" height="4" rx="1" ry="1" width="4" x="145.00000000000006" y="52.1"><title>2024-06-30 40.8 mins</title></rect><text fill="#000000" style="font-size:2.5px; font-family:Arial" x="150.40000000000006" y="18.3">Jul</text><rect fill="#a8e5aa" height="4" rx="1" ry="1" width="4" x="150.40000000000006" y="19.7"><title>2024-07-01 9.75 mins</title></rect><rect fill="#EBEDF0" height="4" rx="1" ry="1" width="4" x="150.40000000000006" y="25.1"><title>2024-07-02</title></rect><rect fill="#EBEDF0" height="4" rx="1" ry="1" width="4" x="150.40000000000006" y="30.5"><title>2024-07-03</title></rect><rect fill="#EBEDF0" height="4" rx="1" ry="1" width="4" x="150.40000000000006" y="35.9"><title>2024-07-04</title></rect><rect fill="#EBEDF0" height="4" rx="1" ry="1" width="4" x="150.40000000000006" y="41.300000000000004"><title>2024-07-05</title></rect><rect fill="#EBEDF0" height="4" rx="1" ry="1" width="4" x="150.40000000000006" y="46.699999999999996"><title>2024-07-06</title></rect><rect fill="#EBEDF0" height="4" rx="1" ry="1" width="4" x="150.40000000000006" y="52.1"><title>2024-07-07</title></rect><rect fill="#EBEDF0" height="4" rx="1" ry="1" width="4" x="155.80000000000007" y="19.7"><title>2024-07-08</title></rect><rect fill="#a1e2a3" height="4" rx="1" ry="1" width="4" x="155.80000000000007" y="25.1"><title>2024-07-09 27.95 mins</title></rect><rect fill="#EBEDF0" height="4" rx="1" ry="1" width="4" x="155.80000000000007" y="30.5"><title>2024-07-10</title></rect><rect fill="#63ba67" height="4" rx="1" ry="1" width="4" x="155.80000000000007" y="35.9"><title>2024-07-11 65.13 mins</title></rect><rect fill="#549F57" height="4" rx="1" ry="1" width="4" x="155.80000000000007" y="41.300000000000004"><title>2024-07-12 82.02 mins</title></rect><rect fill="#a1e2a3" height="4" rx="1" ry="1" width="4" x="155.80000000000007" y="46.699999999999996"><title>2024-07-13 29.02 mins</title></rect><rect fill="#65bd6a" height="4" rx="1" ry="1" width="4" x="155.80000000000007" y="52.1"><title>2024-07-14 38.1 mins</title></rect><rect fill="#EBEDF0" height="4" rx="1" ry="1" width="4" x="161.20000000000007" y="19.7"><title>2024-07-15</title></rect><rect fill="#EBEDF0" height="4" rx="1" ry="1" width="4" x="161.20000000000007" y="25.1"><title>2024-07-16</title></rect><rect fill="#a9e5ab" height="4" rx="1" ry="1" width="4" x="161.20000000000007" y="30.5"><title>2024-07-17 8.63 mins</title></rect><rect fill="#EBEDF0" height="4" rx="1" ry="1" width="4" x="161.20000000000007" y="35.9"><title>2024-07-18</title></rect><rect fill="#EBEDF0" height="4" rx="1" ry="1" width="4" x="161.20000000000007" y="41.300000000000004"><title>2024-07-19</title></rect><rect fill="#EBEDF0" height="4" rx="1" ry="1" width="4" x="161.20000000000007" y="46.699999999999996"><title>2024-07-20</title></rect><rect fill="#EBEDF0" height="4" rx="1" ry="1" width="4" x="161.20000000000007" y="52.1"><title>2024-07-21</title></rect><rect fill="#EBEDF0" height="4" rx="1" ry="1" width="4" x="166.60000000000008" y="19.7"><title>2024-07-22</title></rect><rect fill="#EBEDF0" height="4" rx="1" ry="1" width="4" x="166.60000000000008" y="25.1"><title>2024-07-23</title></rect><rect fill="#EBEDF0" height="4" rx="1" ry="1" width="4" x="166.60000000000008" y="30.5"><title>2024-07-24</title></rect><rect fill="#a8e5aa" height="4" rx="1" ry="1" width="4" x="166.60000000000008" y="35.9"><title>2024-07-25 9.17 mins</title></rect><rect fill="#EBEDF0" height="4" rx="1" ry="1" width="4" x="166.60000000000008" y="41.300000000000004"><title>2024-07-26</title></rect><rect fill="#EBEDF0" height="4" rx="1" ry="1" width="4" x="166.60000000000008" y="46.699999999999996"><title>2024-07-27</title></rect><rect fill="#EBEDF0" height="4" rx="1" ry="1" width="4" x="166.60000000000008" y="52.1"><title>2024-07-28</title></rect><rect fill="#EBEDF0" height="4" rx="1" ry="1" width="4" x="172.00000000000009" y="19.7"><title>2024-07-29</title></rect><rect fill="#EBEDF0" height="4" rx="1" ry="1" width="4" x="172.00000000000009" y="25.1"><title>2024-07-30</title></rect><rect fill="#EBEDF0" height="4" rx="1" ry="1" width="4" x="172.00000000000009" y="30.5"><title>2024-07-31</title></rect><rect fill="#EBEDF0" height="4" rx="1" ry="1" width="4" x="172.00000000000009" y="35.9"><title>2024-08-01</title></rect><rect fill="#EBEDF0" height="4" rx="1" ry="1" width="4" x="172.00000000000009" y="41.300000000000004"><title>2024-08-02</title></rect><rect fill="#EBEDF0" height="4" rx="1" ry="1" width="4" x="172.00000000000009" y="46.699999999999996"><title>2024-08-03</title></rect><rect fill="#EBEDF0" height="4" rx="1" ry="1" width="4" x="172.00000000000009" y="52.1"><title>2024-08-04</title></rect><text fill="#000000" style="font-size:2.5px; font-family:Arial" x="177.4000000000001" y="18.3">Aug</text><rect fill="#EBEDF0" height="4" rx="1" ry="1" width="4" x="177.4000000000001" y="19.7"><title>2024-08-05</title></rect><rect fill="#EBEDF0" height="4" rx="1" ry="1" width="4" x="177.4000000000001" y="25.1"><title>2024-08-06</title></rect><rect fill="#EBEDF0" height="4" rx="1" ry="1" width="4" x="177.4000000000001" y="30.5"><title>2024-08-07</title></rect><rect fill="#EBEDF0" height="4" rx="1" ry="1" width="4" x="177.4000000000001" y="35.9"><title>2024-08-08</title></rect><rect fill="#EBEDF0" height="4" rx="1" ry="1" width="4" x="177.4000000000001" y="41.300000000000004"><title>2024-08-09</title></rect><rect fill="#EBEDF0" height="4" rx="1" ry="1" width="4" x="177.4000000000001" y="46.699999999999996"><title>2024-08-10</title></rect><rect fill="#EBEDF0" height="4" rx="1" ry="1" width="4" x="177.4000000000001" y="52.1"><title>2024-08-11</title></rect><rect fill="#EBEDF0" height="4" rx="1" ry="1" width="4" x="182.8000000000001" y="19.7"><title>2024-08-12</title></rect><rect fill="#EBEDF0" height="4" rx="1" ry="1" width="4" x="182.8000000000001" y="25.1"><title>2024-08-13</title></rect><rect fill="#65bd6a" height="4" rx="1" ry="1" width="4" x="182.8000000000001" y="30.5"><title>2024-08-14 43.68 mins</title></rect><rect fill="#EBEDF0" height="4" rx="1" ry="1" width="4" x="182.8000000000001" y="35.9"><title>2024-08-15</title></rect><rect fill="#65bd6a" height="4" rx="1" ry="1" width="4" x="182.8000000000001" y="41.300000000000004"><title>2024-08-16 36.27 mins</title></rect><rect fill="#EBEDF0" height="4" rx="1" ry="1" width="4" x="182.8000000000001" y="46.699999999999996"><title>2024-08-17</title></rect><rect fill="#a3e3a6" height="4" rx="1" ry="1" width="4" x="182.8000000000001" y="52.1"><title>2024-08-18 21.88 mins</title></rect><rect fill="#EBEDF0" height="4" rx="1" ry="1" width="4" x="188.2000000000001" y="19.7"><title>2024-08-19</title></rect><rect fill="#EBEDF0" height="4" rx="1" ry="1" width="4" x="188.2000000000001" y="25.1"><title>2024-08-20</title></rect><rect fill="#EBEDF0" height="4" rx="1" ry="1" width="4" x="188.2000000000001" y="30.5"><title>2024-08-21</title></rect><rect fill="#EBEDF0" height="4" rx="1" ry="1" width="4" x="188.2000000000001" y="35.9"><title>2024-08-22</title></rect><rect fill="#EBEDF0" height="4" rx="1" ry="1" width="4" x="188.2000000000001" y="41.300000000000004"><title>2024-08-23</title></rect><rect fill="#EBEDF0" height="4" rx="1" ry="1" width="4" x="188.2000000000001" y="46.699999999999996"><title>2024-08-24</title></rect><rect fill="#EBEDF0" height="4" rx="1" ry="1" width="4" x="188.2000000000001" y="52.1"><title>2024-08-25</title></rect><rect fill="#EBEDF0" height="4" rx="1" ry="1" width="4" x="193.6000000000001" y="19.7"><title>2024-08-26</title></rect><rect fill="#EBEDF0" height="4" rx="1" ry="1" width="4" x="193.6000000000001" y="25.1"><title>2024-08-27</title></rect><rect fill="#EBEDF0" height="4" rx="1" ry="1" width="4" x="193.6000000000001" y="30.5"><title>2024-08-28</title></rect><rect fill="#EBEDF0" height="4" rx="1" ry="1" width="4" x="193.6000000000001" y="35.9"><title>2024-08-29</title></rect><rect fill="#EBEDF0" height="4" rx="1" ry="1" width="4" x="193.6000000000001" y="41.300000000000004"><title>2024-08-30</title></rect><rect fill="#abe7ae" height="4" rx="1" ry="1" width="4" x="193.6000000000001" y="46.699999999999996"><title>2024-08-31 1.28 mins</title></rect><rect fill="#64bc68" height="4" rx="1" ry="1" width="4" x="193.6000000000001" y="52.1"><title>2024-09-01 53.63 mins</title></rect><text fill="#000000" style="font-size:2.5px; font-family:Arial" x="199.0000000000001" y="18.3">Sep</text><rect fill="#a5e4a7" height="4" rx="1" ry="1" width="4" x="199.0000000000001" y="19.7"><title>2024-09-02 18.05 mins</title></rect><rect fill="#a7e5a9" height="4" rx="1" ry="1" width="4" x="199.0000000000001" y="25.1"><title>2024-09-03 12.87 mins</title></rect><rect fill="#64bc69" height="4" rx="1" ry="1" width="4" x="199.0000000000001" y="30.5"><title>2024-09-04 53.3 mins</title></rect><rect fill="#EBEDF0" height="4" rx="1" ry="1" width="4" x="199.0000000000001" y="35.9"><title>2024-09-05</title></rect><rect fill="#a9e6ab" height="4" rx="1" ry="1" width="4" x="199.0000000000001" y="41.300000000000004"><title>2024-09-06 8.47 mins</title></rect><rect fill="#EBEDF0" height="4" rx="1" ry="1" width="4" x="199.0000000000001" y="46.699999999999996"><title>2024-09-07</title></rect><rect fill="#a8e5aa" height="4" rx="1" ry="1" width="4" x="199.0000000000001" y="52.1"><title>2024-09-08 9.68 mins</title></rect><rect fill="#ace7ae" height="4" rx="1" ry="1" width="4" x="204.40000000000012" y="19.7"><title>2024-09-09 1.1 mins</title></rect><rect fill="#549F57" height="4" rx="1" ry="1" width="4" x="204.40000000000012" y="25.1"><title>2024-09-10 92.67 mins</title></rect><rect fill="#63bb68" height="4" rx="1" ry="1" width="4" x="204.40000000000012" y="30.5"><title>2024-09-11 57.73 mins</title></rect><rect fill="#a5e4a7" height="4" rx="1" ry="1" width="4" x="204.40000000000012" y="35.9"><title>2024-09-12 18.83 mins</title></rect><rect fill="#a3e3a5" height="4" rx="1" ry="1" width="4" x="204.40000000000012" y="41.300000000000004"><title>2024-09-13 23.9 mins</title></rect><rect fill="#EBEDF0" height="4" rx="1" ry="1" width="4" x="204.40000000000012" y="46.699999999999996"><title>2024-09-14</title></rect><rect fill="#ace7ae" height="4" rx="1" ry="1" width="4" x="204.40000000000012" y="52.1"><title>2024-09-15 0.55 mins</title></rect><rect fill="#EBEDF0" height="4" rx="1" ry="1" width="4" x="209.80000000000013" y="19.7"><title>2024-09-16</title></rect><rect fill="#ace7ae" height="4" rx="1" ry="1" width="4" x="209.80000000000013" y="25.1"><title>2024-09-17 0.42 mins</title></rect><rect fill="#549F57" height="4" rx="1" ry="1" width="4" x="209.80000000000013" y="30.5"><title>2024-09-18 143.03 mins</title></rect><rect fill="#a2e2a4" height="4" rx="1" ry="1" width="4" x="209.80000000000013" y="35.9"><title>2024-09-19 25.53 mins</title></rect><rect fill="#65bc69" height="4" rx="1" ry="1" width="4" x="209.80000000000013" y="41.300000000000004"><title>2024-09-20 45.52 mins</title></rect><rect fill="#abe7ad" height="4" rx="1" ry="1" width="4" x="209.80000000000013" y="46.699999999999996"><title>2024-09-21 2.4 mins</title></rect><rect fill="#66be6a" height="4" rx="1" ry="1" width="4" x="209.80000000000013" y="52.1"><title>2024-09-22 34.07 mins</title></rect><rect fill="#65bd6a" height="4" rx="1" ry="1" width="4" x="215.20000000000013" y="19.7"><title>2024-09-23 43.53 mins</title></rect><rect fill="#63bb68" height="4" rx="1" ry="1" width="4" x="215.20000000000013" y="25.1"><title>2024-09-24 61.28 mins</title></rect><rect fill="#549F57" height="4" rx="1" ry="1" width="4" x="215.20000000000013" y="30.5"><title>2024-09-25 106.78 mins</title></rect><rect fill="#65bd6a" height="4" rx="1" ry="1" width="4" x="215.20000000000013" y="35.9"><title>2024-09-26 37.25 mins</title></rect><rect fill="#EBEDF0" height="4" rx="1" ry="1" width="4" x="215.20000000000013" y="41.300000000000004"><title>2024-09-27</title></rect><rect fill="#a8e5aa" height="4" rx="1" ry="1" width="4" x="215.20000000000013" y="46.699999999999996"><title>2024-09-28 10.33 mins</title></rect><rect fill="#66be6a" height="4" rx="1" ry="1" width="4" x="215.20000000000013" y="52.1"><title>2024-09-29 35.12 mins</title></rect><rect fill="#64bc69" height="4" rx="1" ry="1" width="4" x="220.60000000000014" y="19.7"><title>2024-09-30 47.13 mins</title></rect><rect fill="#a1e2a3" height="4" rx="1" ry="1" width="4" x="220.60000000000014" y="25.1"><title>2024-10-01 29.28 mins</title></rect><rect fill="#ace7ae" height="4" rx="1" ry="1" width="4" x="220.60000000000014" y="30.5"><title>2024-10-02 0.33 mins</title></rect><rect fill="#65bc69" height="4" rx="1" ry="1" width="4" x="220.60000000000014" y="35.9"><title>2024-10-03 45.72 mins</title></rect><rect fill="#a6e4a8" height="4" rx="1" ry="1" width="4" x="220.60000000000014" y="41.300000000000004"><title>2024-10-04 15.97 mins</title></rect><rect fill="#65bd6a" height="4" rx="1" ry="1" width="4" x="220.60000000000014" y="46.699999999999996"><title>2024-10-05 41.32 mins</title></rect><rect fill="#549F57" height="4" rx="1" ry="1" width="4" x="220.60000000000014" y="52.1"><title>2024-10-06 157.32 mins</title></rect><text fill="#000000" style="font-size:2.5px; font-family:Arial" x="226.00000000000014" y="18.3">Oct</text><rect fill="#a7e5a9" height="4" rx="1" ry="1" width="4" x="226.00000000000014" y="19.7"><title>2024-10-07 12.95 mins</title></rect><rect fill="#549F57" height="4" rx="1" ry="1" width="4" x="226.00000000000014" y="25.1"><title>2024-10-08 86.08 mins</title></rect><rect fill="#549F57" height="4" rx="1" ry="1" width="4" x="226.00000000000014" y="30.5"><title>2024-10-09 78.78 mins</title></rect><rect fill="#65bd6a" height="4" rx="1" ry="1" width="4" x="226.00000000000014" y="35.9"><title>2024-10-10 38.53 mins</title></rect><rect fill="#549F57" height="4" rx="1" ry="1" width="4" x="226.00000000000014" y="41.300000000000004"><title>2024-10-11 112.8 mins</title></rect><rect fill="#549F57" height="4" rx="1" ry="1" width="4" x="226.00000000000014" y="46.699999999999996"><title>2024-10-12 121.47 mins</title></rect><rect fill="#549F57" height="4" rx="1" ry="1" width="4" x="226.00000000000014" y="52.1"><title>2024-10-13 96.15 mins</title></rect><rect fill="#549F57" height="4" rx="1" ry="1" width="4" x="231.40000000000015" y="19.7"><title>2024-10-14 81.9 mins</title></rect><rect fill="#549F57" height="4" rx="1" ry="1" width="4" x="231.40000000000015" y="25.1"><title>2024-10-15 82.65 mins</title></rect><rect fill="#549F57" height="4" rx="1" ry="1" width="4" x="231.40000000000015" y="30.5"><title>2024-10-16 115.63 mins</title></rect><rect fill="#aae6ac" height="4" rx="1" ry="1" width="4" x="231.40000000000015" y="35.9"><title>2024-10-17 4.43 mins</title></rect><rect fill="#549F57" height="4" rx="1" ry="1" width="4" x="231.40000000000015" y="41.300000000000004"><title>2024-10-18 118.6 mins</title></rect><rect fill="#ace7ae" height="4" rx="1" ry="1" width="4" x="231.40000000000015" y="46.699999999999996"><title>2024-10-19 0.42 mins</title></rect><rect fill="#549F57" height="4" rx="1" ry="1" width="4" x="231.40000000000015" y="52.1"><title>2024-10-20 123.08 mins</title></rect><rect fill="#549F57" height="4" rx="1" ry="1" width="4" x="236.80000000000015" y="19.7"><title>2024-10-21 95.5 mins</title></rect><rect fill="#549F57" height="4" rx="1" ry="1" width="4" x="236.80000000000015" y="25.1"><title>2024-10-22 234.7 mins</title></rect><rect fill="#549F57" height="4" rx="1" ry="1" width="4" x="236.80000000000015" y="30.5"><title>2024-10-23 103.75 mins</title></rect><rect fill="#63ba67" height="4" rx="1" ry="1" width="4" x="236.80000000000015" y="35.9"><title>2024-10-24 66.9 mins</title></rect><rect fill="#66be6a" height="4" rx="1" ry="1" width="4" x="236.80000000000015" y="41.300000000000004"><title>2024-10-25 34.8 mins</title></rect><rect fill="#a3e3a5" height="4" rx="1" ry="1" width="4" x="236.80000000000015" y="46.699999999999996"><title>2024-10-26 23.1 mins</title></rect><rect fill="#549F57" height="4" rx="1" ry="1" width="4" x="236.80000000000015" y="52.1"><title>2024-10-27 96.05 mins</title></rect><rect fill="#549F57" height="4" rx="1" ry="1" width="4" x="242.20000000000016" y="19.7"><title>2024-10-28 123.18 mins</title></rect><rect fill="#64bc69" height="4" rx="1" ry="1" width="4" x="242.20000000000016" y="25.1"><title>2024-10-29 48.17 mins</title></rect><rect fill="#549F57" height="4" rx="1" ry="1" width="4" x="242.20000000000016" y="30.5"><title>2024-10-30 127.72 mins</title></rect><rect fill="#66be6b" height="4" rx="1" ry="1" width="4" x="242.20000000000016" y="35.9"><title>2024-10-31 29.68 mins</title></rect><rect fill="#65bd6a" height="4" rx="1" ry="1" width="4" x="242.20000000000016" y="41.300000000000004"><title>2024-11-01 42.77 mins</title></rect><rect fill="#ace7ae" height="4" rx="1" ry="1" width="4" x="242.20000000000016" y="46.699999999999996"><title>2024-11-02 1.03 mins</title></rect><rect fill="#66be6b" height="4" rx="1" ry="1" width="4" x="242.20000000000016" y="52.1"><title>2024-11-03 32.25 mins</title></rect><text fill="#000000" style="font-size:2.5px; font-family:Arial" x="247.60000000000016" y="18.3">Nov</text><rect fill="#66be6b" height="4" rx="1" ry="1" width="4" x="247.60000000000016" y="19.7"><title>2024-11-04 29.5 mins</title></rect><rect fill="#abe6ad" height="4" rx="1" ry="1" width="4" x="247.60000000000016" y="25.1"><title>2024-11-05 2.87 mins</title></rect><rect fill="#65bd6a" height="4" rx="1" ry="1" width="4" x="247.60000000000016" y="30.5"><title>2024-11-06 41.32 mins</title></rect><rect fill="#65bd6a" height="4" rx="1" ry="1" width="4" x="247.60000000000016" y="35.9"><title>2024-11-07 37.4 mins</title></rect><rect fill="#65bd6a" height="4" rx="1" ry="1" width="4" x="247.60000000000016" y="41.300000000000004"><title>2024-11-08 38.8 mins</title></rect><rect fill="#a2e2a4" height="4" rx="1" ry="1" width="4" x="247.60000000000016" y="46.699999999999996"><title>2024-11-09 24.93 mins</title></rect><rect fill="#a8e5ab" height="4" rx="1" ry="1" width="4" x="247.60000000000016" y="52.1"><title>2024-11-10 8.95 mins</title></rect><rect fill="#a5e4a7" height="4" rx="1" ry="1" width="4" x="253.00000000000017" y="19.7"><title>2024-11-11 18.47 mins</title></rect><rect fill="#abe7ad" height="4" rx="1" ry="1" width="4" x="253.00000000000017" y="25.1"><title>2024-11-12 2.78 mins</title></rect><rect fill="#a1e2a3" height="4" rx="1" ry="1" width="4" x="253.00000000000017" y="30.5"><title>2024-11-13 28.3 mins</title></rect><rect fill="#549F57" height="4" rx="1" ry="1" width="4" x="253.00000000000017" y="35.9"><title>2024-11-14 136.68 mins</title></rect><rect fill="#63bb67" height="4" rx="1" ry="1" width="4" x="253.00000000000017" y="41.300000000000004"><title>2024-11-15 63.78 mins</title></rect><rect fill="#65bd6a" height="4" rx="1" ry="1" width="4" x="253.00000000000017" y="46.699999999999996"><title>2024-11-16 43.68 mins</title></rect><rect fill="#549F57" height="4" rx="1" ry="1" width="4" x="253.00000000000017" y="52.1"><title>2024-11-17 152.07 mins</title></rect><rect fill="#64bc69" height="4" rx="1" ry="1" width="4" x="258.40000000000015" y="19.7"><title>2024-11-18 51.72 mins</title></rect><rect fill="#62ba67" height="4" rx="1" ry="1" width="4" x="258.40000000000015" y="25.1"><title>2024-11-19 71.18 mins</title></rect><rect fill="#a1e2a3" height="4" rx="1" ry="1" width="4" x="258.40000000000015" y="30.5"><title>2024-11-20 29.18 mins</title></rect><rect fill="#549F57" height="4" rx="1" ry="1" width="4" x="258.40000000000015" y="35.9"><title>2024-11-21 110.4 mins</title></rect><rect fill="#65bd6a" height="4" rx="1" ry="1" width="4" x="258.40000000000015" y="41.300000000000004"><title>2024-11-22 40.73 mins</title></rect><rect fill="#64bc68" height="4" rx="1" ry="1" width="4" x="258.40000000000015" y="46.699999999999996"><title>2024-11-23 53.93 mins</title></rect><rect fill="#a3e3a5" height="4" rx="1" ry="1" width="4" x="258.40000000000015" y="52.1"><title>2024-11-24 22.75 mins</title></rect><rect fill="#a7e5a9" height="4" rx="1" ry="1" width="4" x="263.8000000000001" y="19.7"><title>2024-11-25 13.62 mins</title></rect><rect fill="#64bc69" height="4" rx="1" ry="1" width="4" x="263.8000000000001" y="25.1"><title>2024-11-26 47.27 mins</title></rect><rect fill="#a4e3a6" height="4" rx="1" ry="1" width="4" x="263.8000000000001" y="30.5"><title>2024-11-27 21.62 mins</title></rect><rect fill="#549F57" height="4" rx="1" ry="1" width="4" x="263.8000000000001" y="35.9"><title>2024-11-28 104.13 mins</title></rect><rect fill="#a6e4a8" height="4" rx="1" ry="1" width="4" x="263.8000000000001" y="41.300000000000004"><title>2024-11-29 15.13 mins</title></rect><rect fill="#549F57" height="4" rx="1" ry="1" width="4" x="263.8000000000001" y="46.699999999999996"><title>2024-11-30 94.48 mins</title></rect><rect fill="#549F57" height="4" rx="1" ry="1" width="4" x="263.8000000000001" y="52.1"><title>2024-12-01 256.07 mins</title></rect><text fill="#000000" style="font-size:2.5px; font-family:Arial" x="269.2000000000001" y="18.3">Dec</text><rect fill="#a5e4a7" height="4" rx="1" ry="1" width="4" x="269.2000000000001" y="19.7"><title>2024-12-02 17.25 mins</title></rect><rect fill="#549F57" height="4" rx="1" ry="1" width="4" x="269.2000000000001" y="25.1"><title>2024-12-03 134.5 mins</title></rect><rect fill="#549F57" height="4" rx="1" ry="1" width="4" x="269.2000000000001" y="30.5"><title>2024-12-04 187.62 mins</title></rect><rect fill="#549F57" height="4" rx="1" ry="1" width="4" x="269.2000000000001" y="35.9"><title>2024-12-05 107.78 mins</title></rect><rect fill="#a6e4a8" height="4" rx="1" ry="1" width="4" x="269.2000000000001" y="41.300000000000004"><title>2024-12-06 15.97 mins</title></rect><rect fill="#549F57" height="4" rx="1" ry="1" width="4" x="269.2000000000001" y="46.699999999999996"><title>2024-12-07 181.68 mins</title></rect><rect fill="#549F57" height="4" rx="1" ry="1" width="4" x="269.2000000000001" y="52.1"><title>2024-12-08 166.68 mins</title></rect><rect fill="#549F57" height="4" rx="1" ry="1" width="4" x="274.6000000000001" y="19.7"><title>2024-12-09 99.72 mins</title></rect><rect fill="#a3e3a5" height="4" rx="1" ry="1" width="4" x="274.6000000000001" y="25.1"><title>2024-12-10 22.4 mins</title></rect><rect fill="#a6e4a8" height="4" rx="1" ry="1" width="4" x="274.6000000000001" y="30.5"><title>2024-12-11 14.97 mins</title></rect><rect fill="#ace7ae" height="4" rx="1" ry="1" width="4" x="274.6000000000001" y="35.9"><title>2024-12-12 0.13 mins</title></rect><rect fill="#EBEDF0" height="4" rx="1" ry="1" width="4" x="274.6000000000001" y="41.300000000000004"><title>2024-12-13</title></rect><rect fill="#EBEDF0" height="4" rx="1" ry="1" width="4" x="274.6000000000001" y="46.699999999999996"><title>2024-12-14</title></rect><rect fill="#EBEDF0" height="4" rx="1" ry="1" width="4" x="274.6000000000001" y="52.1"><title>2024-12-15</title></rect><rect fill="#EBEDF0" height="4" rx="1" ry="1" width="4" x="280.00000000000006" y="19.7"><title>2024-12-16</title></rect><rect fill="#EBEDF0" height="4" rx="1" ry="1" width="4" x="280.00000000000006" y="25.1"><title>2024-12-17</title></rect><rect fill="#EBEDF0" height="4" rx="1" ry="1" width="4" x="280.00000000000006" y="30.5"><title>2024-12-18</title></rect><rect fill="#EBEDF0" height="4" rx="1" ry="1" width="4" x="280.00000000000006" y="35.9"><title>2024-12-19</title></rect><rect fill="#EBEDF0" height="4" rx="1" ry="1" width="4" x="280.00000000000006" y="41.300000000000004"><title>2024-12-20</title></rect><rect fill="#EBEDF0" height="4" rx="1" ry="1" width="4" x="280.00000000000006" y="46.699999999999996"><title>2024-12-21</title></rect><rect fill="#EBEDF0" height="4" rx="1" ry="1" width="4" x="280.00000000000006" y="52.1"><title>2024-12-22</title></rect><rect fill="#EBEDF0" height="4" rx="1" ry="1" width="4" x="285.40000000000003" y="19.7"><title>2024-12-23</title></rect><rect fill="#EBEDF0" height="4" rx="1" ry="1" width="4" x="285.40000000000003" y="25.1"><title>2024-12-24</title></rect><rect fill="#EBEDF0" height="4" rx="1" ry="1" width="4" x="285.40000000000003" y="30.5"><title>2024-12-25</title></rect><rect fill="#EBEDF0" height="4" rx="1" ry="1" width="4" x="285.40000000000003" y="35.9"><title>2024-12-26</title></rect><rect fill="#EBEDF0" height="4" rx="1" ry="1" width="4" x="285.40000000000003" y="41.300000000000004"><title>2024-12-27</title></rect><rect fill="#EBEDF0" height="4" rx="1" ry="1" width="4" x="285.40000000000003" y="46.699999999999996"><title>2024-12-28</title></rect><rect fill="#EBEDF0" height="4" rx="1" ry="1" width="4" x="285.40000000000003" y="52.1"><title>2024-12-29</title></rect><rect fill="#EBEDF0" height="4" rx="1" ry="1" width="4" x="290.8" y="19.7"><title>2024-12-30</title></rect><rect fill="#EBEDF0" height="4" rx="1" ry="1" width="4" x="290.8" y="25.1"><title>2024-12-31</title></rect></svg>